<svg width="114" height="102" viewBox="0 0 114 102" fill="none" xmlns="http://www.w3.org/2000/svg">
<path d="M81.3468 92.5156C107.342 77.5073 119.049 47.2545 111.694 19.5692C91.3949 -0.642939 59.342 -5.63117 33.3468 9.37716C7.35159 24.3855 -4.35492 54.6383 2.99992 82.3236C23.2987 102.536 55.3516 107.524 81.3468 92.5156Z" fill="#339777"/>
<path d="M62.981 81.924C56.597 81.924 51.137 80.664 46.601 78.144C42.065 75.624 38.565 72.096 36.101 67.56C33.693 62.968 32.489 57.564 32.489 51.348C32.489 46.7 33.161 42.528 34.505 38.832C35.905 35.08 37.921 31.888 40.553 29.256C43.185 26.568 46.377 24.496 50.129 23.04C53.937 21.584 58.221 20.856 62.981 20.856C65.781 20.856 68.609 21.22 71.465 21.948C74.377 22.62 76.897 23.6 79.025 24.888C80.425 25.672 81.377 26.652 81.881 27.828C82.385 29.004 82.525 30.18 82.301 31.356C82.133 32.532 81.657 33.54 80.873 34.38C80.145 35.22 79.221 35.752 78.101 35.976C76.981 36.2 75.721 35.948 74.321 35.22C72.641 34.212 70.877 33.484 69.029 33.036C67.181 32.588 65.305 32.364 63.401 32.364C59.649 32.364 56.485 33.12 53.909 34.632C51.389 36.088 49.485 38.216 48.197 41.016C46.909 43.816 46.265 47.26 46.265 51.348C46.265 55.38 46.909 58.824 48.197 61.68C49.485 64.536 51.389 66.72 53.909 68.232C56.485 69.688 59.649 70.416 63.401 70.416C65.193 70.416 67.013 70.192 68.861 69.744C70.765 69.296 72.585 68.596 74.321 67.644C75.777 66.916 77.065 66.664 78.185 66.888C79.361 67.056 80.313 67.56 81.041 68.4C81.825 69.184 82.301 70.136 82.469 71.256C82.693 72.376 82.581 73.496 82.133 74.616C81.685 75.736 80.845 76.688 79.613 77.472C77.541 78.872 74.993 79.964 71.969 80.748C68.945 81.532 65.949 81.924 62.981 81.924Z" fill="white"/>
</svg>
